<svg width="365" height="146" viewBox="0 0 365 146" fill="none" xmlns="http://www.w3.org/2000/svg">
<path d="M10.2578 54.887H2.58398C2.65777 58.9453 4.28109 62.1181 7.38014 64.4055C10.4792 66.6929 14.6113 67.7997 19.7026 67.7997C22.6541 67.7997 25.3842 67.357 27.8192 66.3978C30.1803 65.4385 32.0988 64.0366 33.5008 62.2657C34.8289 60.4948 35.5668 58.355 35.5668 55.9938C35.5668 53.3375 34.9027 51.2714 33.5745 49.7219C32.2464 48.1724 30.4755 47.0656 28.2619 46.3277C26.0483 45.5898 23.3181 45.0733 20.0715 44.7044C17.6365 44.4092 15.8657 44.1879 14.8326 43.9665C13.7258 43.7451 12.8404 43.3762 12.1025 42.7859C11.3646 42.1956 11.0695 41.384 11.0695 40.2034C11.0695 38.7276 11.7336 37.4732 13.2093 36.5878C14.6113 35.7023 16.4559 35.2596 18.8171 35.2596C21.1045 35.2596 23.023 35.8499 24.5725 36.9567C26.0483 38.0635 26.9337 39.4655 27.1551 41.1626H34.9027C34.6076 37.3257 32.9842 34.3742 30.0328 32.2344C27.0813 30.1683 23.1706 29.0615 18.4482 29.0615C15.4967 29.0615 12.9142 29.578 10.6268 30.5373C8.33937 31.5703 6.56849 32.9722 5.24032 34.7431C3.91215 36.514 3.32185 38.58 3.32185 40.8674C3.32185 43.3762 3.91215 45.2947 5.24032 46.7704C6.56849 48.2461 8.26559 49.2792 10.4054 49.9432C12.5452 50.6073 15.2754 51.1238 18.5958 51.4928C20.957 51.7879 22.7278 52.0831 23.9084 52.3782C25.089 52.6734 25.9745 53.1161 26.7123 53.7064C27.3764 54.3705 27.7454 55.3297 27.7454 56.5841C27.7454 58.1336 26.9337 59.388 25.458 60.2734C23.9822 61.1589 21.99 61.6016 19.6288 61.6016C16.8987 61.6016 14.6851 61.0113 12.988 59.7569C11.2909 58.5025 10.4054 56.8792 10.2578 54.887ZM69.7731 33.2674C66.9692 30.5373 63.2798 29.1353 58.8526 29.1353C53.6137 29.1353 49.5554 30.98 46.7515 34.5218L45.8661 29.578H38.9301V67.357H46.8991V48.3199C46.8991 44.483 47.7846 41.5315 49.5554 39.3179C51.3263 37.1043 53.8351 35.9975 57.0079 35.9975C59.9594 35.9975 62.173 36.9567 63.7226 38.8014C65.1983 40.7199 66.01 43.45 66.01 46.9918V67.357H74.0527V46.549C74.0527 40.4985 72.577 36.0713 69.7731 33.2674ZM85.9471 65.4385C88.8986 67.0618 92.219 67.7997 96.0559 67.7997C99.8186 67.7997 103.139 67.0618 106.09 65.4385C109.042 63.8152 111.256 61.6016 112.879 58.6501C114.502 55.6986 115.314 52.3044 115.314 48.4675C115.314 44.7044 114.502 41.3839 112.879 38.4325C111.256 35.481 109.042 33.1936 106.09 31.5703C103.139 29.947 99.8186 29.1353 96.0559 29.1353C92.219 29.1353 88.8986 29.947 85.9471 31.5703C82.9956 33.1936 80.782 35.481 79.1587 38.4325C77.5354 41.3839 76.7975 44.7044 76.7975 48.4675C76.7975 52.3044 77.5354 55.6986 79.1587 58.6501C80.782 61.6016 82.9956 63.8152 85.9471 65.4385ZM104.098 57.5433C102.032 59.9045 99.3759 61.0113 96.0559 61.0113C92.6617 61.0113 90.0054 59.9045 88.0132 57.5433C85.9471 55.1821 84.9879 52.1569 84.9879 48.4675C84.9879 44.7782 85.9471 41.8267 88.0132 39.4655C90.0054 37.1043 92.6617 35.9237 96.0559 35.9237C99.3759 35.9237 102.032 37.1043 104.098 39.4655C106.164 41.8267 107.197 44.7782 107.197 48.4675C107.197 52.1569 106.164 55.1821 104.098 57.5433ZM113.926 29.578L126.248 67.4308L134.881 67.357L143.145 41.6791L151.114 67.357H159.674L172.217 29.578H164.101L155.173 58.5025L146.909 29.578H139.604L130.97 58.5025L122.337 29.578H113.926ZM204.154 33.2674C201.351 30.5373 197.661 29.1353 193.16 29.1353C188.069 29.1353 184.084 31.1276 181.28 35.0383V15.7061H173.311V67.357H181.28V48.2461C181.28 44.483 182.166 41.5315 183.937 39.3179C185.708 37.1043 188.216 35.9975 191.389 35.9975C194.341 35.9975 196.554 36.9567 198.104 38.8014C199.653 40.7199 200.465 43.45 200.465 46.9918V67.357H208.434V46.549C208.434 40.4985 206.958 36.0713 204.154 33.2674ZM220.329 65.4385C223.28 67.0618 226.6 67.7997 230.437 67.7997C234.201 67.7997 237.521 67.0618 240.472 65.4385C243.424 63.8152 245.638 61.6016 247.261 58.6501C248.884 55.6986 249.696 52.3044 249.696 48.4675C249.696 44.7044 248.884 41.3839 247.261 38.4325C245.638 35.481 243.424 33.1936 240.472 31.5703C237.521 29.947 234.201 29.1353 230.437 29.1353C226.6 29.1353 223.28 29.947 220.329 31.5703C217.377 33.1936 215.163 35.481 213.54 38.4325C211.917 41.3839 211.179 44.7044 211.179 48.4675C211.179 52.3044 211.917 55.6986 213.54 58.6501C215.163 61.6016 217.377 63.8152 220.329 65.4385ZM238.48 57.5433C236.414 59.9045 233.758 61.0113 230.437 61.0113C227.043 61.0113 224.387 59.9045 222.395 57.5433C220.329 55.1821 219.369 52.1569 219.369 48.4675C219.369 44.7782 220.329 41.8267 222.395 39.4655C224.387 37.1043 227.043 35.9237 230.437 35.9237C233.758 35.9237 236.414 37.1043 238.48 39.4655C240.546 41.8267 241.579 44.7782 241.579 48.4675C241.579 52.1569 240.546 55.1821 238.48 57.5433ZM286.872 29.578H278.903V48.3199C278.903 52.2306 278.017 55.3297 276.32 57.5433C274.549 59.7569 272.188 60.8637 269.163 60.8637C266.211 60.8637 264.072 59.9045 262.596 57.986C261.12 56.0676 260.382 53.2637 260.382 49.5743V29.578H252.413V50.386C252.413 56.5103 253.741 60.9375 256.545 63.6676C259.275 66.4715 262.891 67.7997 267.318 67.7997C272.188 67.7997 276.099 66.1026 278.977 62.5608L279.862 67.357H286.872V29.578ZM297.969 54.887H290.295C290.369 58.9453 291.993 62.1181 295.092 64.4055C298.191 66.6929 302.323 67.7997 307.414 67.7997C310.366 67.7997 313.096 67.357 315.531 66.3978C317.892 65.4385 319.81 64.0366 321.212 62.2657C322.54 60.4948 323.278 58.355 323.278 55.9938C323.278 53.3375 322.614 51.2714 321.286 49.7219C319.958 48.1724 318.187 47.0656 315.973 46.3277C313.76 45.5898 311.03 45.0733 307.783 44.7044C305.348 44.4092 303.577 44.1879 302.544 43.9665C301.437 43.7451 300.552 43.3762 299.814 42.7859C299.076 42.1956 298.781 41.384 298.781 40.2034C298.781 38.7276 299.445 37.4732 300.921 36.5878C302.323 35.7023 304.167 35.2596 306.529 35.2596C308.816 35.2596 310.734 35.8499 312.284 36.9567C313.76 38.0635 314.645 39.4655 314.867 41.1626H322.614C322.319 37.3257 320.696 34.3742 317.744 32.2344C314.793 30.1683 310.882 29.0615 306.16 29.0615C303.208 29.0615 300.626 29.578 298.338 30.5373C296.051 31.5703 294.28 32.9722 292.952 34.7431C291.624 36.514 291.033 38.58 291.033 40.8674C291.033 43.3762 291.624 45.2947 292.952 46.7704C294.28 48.2461 295.977 49.2792 298.117 49.9432C300.257 50.6073 302.987 51.1238 306.307 51.4928C308.668 51.7879 310.439 52.0831 311.62 52.3782C312.8 52.6734 313.686 53.1161 314.424 53.7064C315.088 54.3705 315.457 55.3297 315.457 56.5841C315.457 58.1336 314.645 59.388 313.169 60.2734C311.694 61.1589 309.701 61.6016 307.34 61.6016C304.61 61.6016 302.397 61.0113 300.699 59.7569C299.002 58.5025 298.117 56.8792 297.969 54.887ZM327.527 38.3587C325.978 41.3102 325.24 44.7044 325.24 48.5413C325.24 52.3782 325.978 55.7724 327.601 58.6501C329.224 61.6016 331.438 63.8152 334.39 65.4385C337.341 67.0618 340.735 67.7997 344.72 67.7997C349.221 67.7997 352.984 66.6191 356.009 64.1104C359.034 61.6754 360.879 58.5025 361.617 54.6656H353.648C353.058 56.8054 351.951 58.4288 350.328 59.6094C348.63 60.7899 346.564 61.3065 344.129 61.3065C341.03 61.3065 338.522 60.3472 336.677 58.4288C334.759 56.5103 333.726 53.9277 333.578 50.6073V50.1646H362.06C362.207 49.1316 362.281 48.1724 362.281 47.1393C362.207 43.5238 361.396 40.3509 359.772 37.6208C358.149 34.9645 356.009 32.8247 353.205 31.3489C350.401 29.8732 347.229 29.1353 343.613 29.1353C339.997 29.1353 336.825 29.947 334.021 31.5703C331.217 33.1936 329.077 35.4072 327.527 38.3587ZM354.165 44.3354H333.873C334.168 41.6791 335.201 39.6131 337.12 37.9897C339.038 36.3664 341.252 35.5548 343.908 35.5548C346.712 35.5548 348.999 36.3664 350.844 37.916C352.689 39.4655 353.796 41.6053 354.165 44.3354Z" fill="white"/>
<path d="M180.547 124.633H172.809C172.883 128.726 174.52 131.927 177.646 134.234C180.771 136.54 184.938 137.656 190.073 137.656C193.049 137.656 195.803 137.21 198.258 136.243C200.639 135.275 202.574 133.861 203.988 132.075C205.327 130.289 206.072 128.131 206.072 125.75C206.072 123.071 205.402 120.987 204.063 119.425C202.723 117.863 200.937 116.746 198.705 116.002C196.473 115.258 193.719 114.737 190.445 114.365C187.989 114.067 186.203 113.844 185.162 113.62C184.045 113.397 183.153 113.025 182.408 112.43C181.664 111.835 181.366 111.016 181.366 109.826C181.366 108.337 182.036 107.072 183.524 106.18C184.938 105.286 186.799 104.84 189.179 104.84C191.487 104.84 193.422 105.435 194.984 106.552C196.473 107.667 197.365 109.081 197.588 110.793H205.402C205.104 106.924 203.467 103.947 200.491 101.789C197.514 99.7052 193.57 98.5893 188.808 98.5893C185.832 98.5893 183.226 99.11 180.92 100.077C178.613 101.119 176.828 102.533 175.488 104.319C174.149 106.105 173.553 108.189 173.553 110.496C173.553 113.025 174.149 114.96 175.488 116.448C176.828 117.937 178.538 118.978 180.697 119.648C182.854 120.318 185.608 120.839 188.956 121.211C191.338 121.509 193.124 121.806 194.314 122.104C195.505 122.401 196.398 122.848 197.142 123.443C197.812 124.113 198.183 125.08 198.183 126.345C198.183 127.908 197.365 129.173 195.877 130.066C194.389 130.959 192.38 131.405 189.998 131.405C187.245 131.405 185.013 130.81 183.301 129.545C181.589 128.28 180.697 126.643 180.547 124.633ZM211.945 106.18V126.867C211.945 130.438 212.764 133.042 214.401 134.679C216.038 136.391 218.717 137.21 222.363 137.21H230.102V130.141H224C222.512 130.141 221.544 129.843 220.949 129.248C220.354 128.652 220.056 127.536 220.056 126.048V106.18H229.209V99.11H220.056V88.4691H211.945V99.11H205.322V106.18H211.945ZM265.47 99.11H257.433V118.011C257.433 121.955 256.541 125.08 254.829 127.312C253.044 129.545 250.662 130.661 247.611 130.661C244.635 130.661 242.476 129.694 240.989 127.759C239.5 125.825 238.756 122.996 238.756 119.277V99.11H230.72V120.095C230.72 126.271 232.059 130.736 234.886 133.489C237.64 136.316 241.286 137.656 245.751 137.656C250.662 137.656 254.606 135.945 257.508 132.373L258.401 137.21H265.47V99.11ZM307.273 85.1205H299.236V104.393C297.896 102.608 296.259 101.269 294.177 100.227C292.093 99.1848 289.637 98.6637 286.883 98.6637C283.461 98.6637 280.335 99.4819 277.656 101.119C274.903 102.756 272.745 104.988 271.182 107.965C269.62 110.942 268.875 114.29 268.875 118.16C268.875 122.178 269.62 125.602 271.182 128.578C272.671 131.555 274.829 133.787 277.582 135.349C280.261 136.912 283.386 137.656 286.883 137.656C292.093 137.656 296.259 135.647 299.311 131.48L300.278 137.21H307.273V85.1205ZM296.259 127.387C294.177 129.768 291.498 130.885 288.223 130.885C284.874 130.885 282.195 129.768 280.186 127.387C278.103 125.006 277.136 121.955 277.136 118.16C277.136 114.439 278.103 111.463 280.186 109.081C282.195 106.7 284.874 105.51 288.223 105.51C291.498 105.51 294.177 106.7 296.259 109.081C298.269 111.463 299.311 114.514 299.311 118.308C299.311 122.029 298.269 125.08 296.259 127.387ZM319.542 85.2693C318.574 84.3764 317.384 83.8555 316.044 83.8555C314.63 83.8555 313.44 84.3764 312.547 85.2693C311.579 86.1623 311.133 87.3529 311.133 88.6924C311.133 90.1062 311.579 91.2968 312.547 92.1898C313.44 93.0827 314.63 93.5292 316.044 93.5292C317.384 93.5292 318.574 93.0827 319.542 92.1898C320.435 91.2968 320.955 90.1062 320.955 88.6924C320.955 87.3529 320.435 86.1623 319.542 85.2693ZM312.026 99.11V137.21H320.062V99.11H312.026ZM332.653 135.275C335.63 136.912 338.978 137.656 342.847 137.656C346.643 137.656 349.991 136.912 352.968 135.275C355.944 133.637 358.176 131.405 359.814 128.429C361.451 125.452 362.269 122.029 362.269 118.16C362.269 114.365 361.451 111.016 359.814 108.04C358.176 105.063 355.944 102.756 352.968 101.119C349.991 99.4819 346.643 98.6637 342.847 98.6637C338.978 98.6637 335.63 99.4819 332.653 101.119C329.677 102.756 327.445 105.063 325.808 108.04C324.17 111.016 323.426 114.365 323.426 118.16C323.426 122.029 324.17 125.452 325.808 128.429C327.445 131.405 329.677 133.637 332.653 135.275ZM350.959 127.312C348.875 129.694 346.196 130.81 342.847 130.81C339.425 130.81 336.746 129.694 334.737 127.312C332.653 124.932 331.686 121.881 331.686 118.16C331.686 114.439 332.653 111.463 334.737 109.081C336.746 106.7 339.425 105.51 342.847 105.51C346.196 105.51 348.875 106.7 350.959 109.081C353.043 111.463 354.084 114.439 354.084 118.16C354.084 121.881 353.043 124.932 350.959 127.312Z" fill="white" fill-opacity="0.4"/>
<path d="M86.7215 85.0654C100.846 85.0811 114.388 90.6988 124.375 100.687C134.362 110.673 139.98 124.215 139.996 138.34H134.388C134.478 132.024 133.313 125.752 130.958 119.889C128.604 114.027 125.108 108.692 120.673 104.193C116.238 99.694 110.953 96.1212 105.126 93.6827C99.2978 91.2443 93.0437 89.9885 86.7264 89.9885C80.4092 89.9885 74.1549 91.2443 68.3272 93.6827C62.4996 96.1212 57.2147 99.694 52.78 104.193C48.3452 108.692 44.8489 114.027 42.4944 119.889C40.1399 125.752 38.9741 132.024 39.0649 138.34H33.4473C33.4629 124.215 39.0808 110.673 49.0682 100.687C59.0557 90.6988 72.5971 85.0811 86.7215 85.0654Z" fill="white"/>
<path d="M101.719 115.023C107.9 115.031 113.825 117.491 118.194 121.862C122.564 126.233 125.021 132.16 125.026 138.34H122.871C122.871 132.73 120.643 127.35 116.676 123.383C112.709 119.416 107.329 117.188 101.719 117.188C96.1092 117.188 90.729 119.416 86.7621 123.383C82.7953 127.35 80.5668 132.73 80.5668 138.34H78.4023C78.4076 132.158 80.8658 126.23 85.2375 121.858C89.609 117.487 95.5367 115.028 101.719 115.023Z" fill="white"/>
<path d="M101.713 112.2C108.642 112.208 115.286 114.965 120.184 119.866C125.084 124.767 127.838 131.411 127.843 138.34H125.689C125.689 135.192 125.068 132.074 123.864 129.165C122.658 126.256 120.892 123.614 118.666 121.387C116.44 119.161 113.797 117.395 110.888 116.19C107.979 114.984 104.861 114.365 101.713 114.365C98.5635 114.365 95.4463 114.984 92.5374 116.19C89.6285 117.395 86.9855 119.161 84.759 121.387C82.5327 123.614 80.7667 126.256 79.5618 129.165C78.3569 132.074 77.7367 135.192 77.7367 138.34H75.5723C75.5801 131.41 78.3366 124.766 83.2372 119.865C88.1378 114.965 94.7821 112.208 101.713 112.2Z" fill="white"/>
<path d="M96.669 123.396C100.631 123.401 104.429 124.977 107.231 127.779C110.031 130.58 111.609 134.379 111.613 138.341H108.662C108.662 135.16 107.399 132.109 105.149 129.86C102.9 127.611 99.8499 126.348 96.669 126.348C93.4882 126.348 90.4378 127.611 88.1887 129.86C85.9396 132.109 84.6761 135.16 84.6761 138.341H81.7246C81.7273 134.378 83.3026 130.578 86.1046 127.776C88.9066 124.975 92.7063 123.399 96.669 123.396Z" fill="white"/>
</svg>
